<svg width="360" height="641" viewBox="0 0 360 641" fill="none" xmlns="http://www.w3.org/2000/svg">
<g clip-path="url(#clip0_1_10)">
<rect width="360" height="640" transform="translate(0 0.588989)" fill="white"/>
<rect width="360" height="640" transform="translate(0 1)" fill="#353535"/>
<path opacity="0.1" d="M177.825 522C145.931 522 119.008 516.61 97.0544 505.83C75.5155 494.636 57.4974 481.783 43 467.272L75.9297 421.25C87.9418 432.444 101.404 442.395 116.315 451.102C131.227 459.394 148.624 463.54 168.506 463.54C190.873 463.54 209.098 456.906 223.181 443.639C237.679 430.371 244.927 411.714 244.927 387.667C244.927 364.034 238.3 345.791 225.045 332.938C211.791 320.085 194.187 313.659 172.234 313.659C159.393 313.659 148.624 315.525 139.925 319.256C131.227 322.573 120.872 328.17 108.859 336.048L74.6871 314.281L86.4921 119H297.739V179.326H148.624L140.546 275.1C148.831 270.954 156.908 267.845 164.778 265.772C173.062 263.284 182.382 262.04 192.737 262.04C209.72 262.04 225.667 264.528 240.578 269.503C255.904 274.478 269.159 282.149 280.342 292.514C291.526 302.465 300.432 315.317 307.059 331.073C313.686 346.413 317 364.656 317 385.801C317 407.361 313.065 426.64 305.195 443.639C297.739 460.638 287.591 474.942 274.751 486.551C261.91 498.16 246.998 507.074 230.016 513.293C213.447 519.098 196.051 522 177.825 522Z" fill="white"/>
<path d="M93.1825 337C89.8707 337 86.7848 336.448 83.9246 335.345C81.1146 334.242 78.6558 332.612 76.5483 330.456C74.491 328.299 72.8853 325.642 71.7312 322.482C70.5771 319.323 70 315.712 70 311.65C70 307.639 70.6021 304.053 71.8064 300.894C73.0107 297.684 74.6415 294.976 76.6988 292.77C78.8064 290.563 81.2651 288.883 84.0751 287.73C86.9353 286.577 89.9962 286 93.2578 286C96.7703 286 99.7308 286.652 102.139 287.956C104.598 289.209 106.605 290.639 108.161 292.243L103.494 297.885C102.24 296.681 100.835 295.678 99.2792 294.876C97.7739 294.024 95.8671 293.597 93.5589 293.597C91.351 293.597 89.3439 294.024 87.5374 294.876C85.7812 295.678 84.2507 296.857 82.9461 298.412C81.6916 299.916 80.7131 301.771 80.0106 303.978C79.3081 306.184 78.9569 308.667 78.9569 311.425C78.9569 317.041 80.2114 321.454 82.7203 324.664C85.2794 327.823 89.0428 329.403 94.0105 329.403C95.4155 329.403 96.7452 329.227 97.9997 328.876C99.2541 328.475 100.283 327.923 101.086 327.221V316.615H91.7524V309.469H108.914V331.133C107.258 332.788 105.05 334.192 102.29 335.345C99.5803 336.448 96.5445 337 93.1825 337Z" fill="url(#paint0_linear_1_10)"/>
<path d="M129.467 309.92L127.736 315.938H140.306L138.574 309.92C137.772 307.313 136.994 304.63 136.241 301.872C135.539 299.114 134.836 296.381 134.134 293.673H133.833C133.13 296.431 132.428 299.189 131.725 301.947C131.023 304.655 130.27 307.313 129.467 309.92ZM112.983 336.097L129.015 286.903H139.252L155.284 336.097H146.101L142.263 322.783H125.704L121.865 336.097H112.983Z" fill="url(#paint1_linear_1_10)"/>
<path d="M161.352 336.097V286.903H171.212L179.943 310.973C180.495 312.528 181.022 314.133 181.524 315.788C182.025 317.392 182.552 318.997 183.104 320.602H183.405C183.957 318.997 184.459 317.392 184.911 315.788C185.412 314.133 185.939 312.528 186.491 310.973L194.997 286.903H204.932V336.097H196.878V313.606C196.878 312.453 196.903 311.199 196.954 309.845C197.054 308.491 197.154 307.137 197.255 305.783C197.355 304.379 197.48 303.025 197.631 301.721C197.781 300.367 197.907 299.114 198.007 297.96H197.706L193.717 309.394L185.663 331.509H180.47L172.341 309.394L168.427 297.96H168.126C168.226 299.114 168.327 300.367 168.427 301.721C168.577 303.025 168.703 304.379 168.803 305.783C168.954 307.137 169.054 308.491 169.104 309.845C169.205 311.199 169.255 312.453 169.255 313.606V336.097H161.352Z" fill="url(#paint2_linear_1_10)"/>
<path d="M217.435 336.097V286.903H247.091V294.274H226.166V306.836H243.854V314.208H226.166V328.726H247.843V336.097H217.435Z" fill="url(#paint3_linear_1_10)"/>
<path d="M272.312 337C269 337 265.789 336.373 262.678 335.119C259.617 333.866 256.907 332.086 254.549 329.779L259.667 323.836C261.423 325.491 263.43 326.845 265.688 327.898C267.946 328.901 270.205 329.403 272.463 329.403C275.273 329.403 277.405 328.826 278.86 327.673C280.316 326.519 281.043 324.99 281.043 323.084C281.043 322.081 280.842 321.229 280.441 320.527C280.09 319.824 279.563 319.223 278.86 318.721C278.208 318.17 277.405 317.668 276.452 317.217C275.549 316.765 274.545 316.314 273.441 315.863L266.667 312.929C265.463 312.428 264.258 311.801 263.054 311.049C261.9 310.296 260.846 309.394 259.893 308.341C258.939 307.288 258.162 306.059 257.559 304.655C257.008 303.251 256.732 301.646 256.732 299.841C256.732 297.885 257.133 296.08 257.936 294.425C258.789 292.72 259.943 291.24 261.398 289.987C262.853 288.733 264.585 287.755 266.592 287.053C268.649 286.351 270.882 286 273.29 286C276.151 286 278.911 286.577 281.57 287.73C284.229 288.833 286.513 290.338 288.419 292.243L283.979 297.81C282.373 296.506 280.717 295.478 279.011 294.726C277.305 293.973 275.398 293.597 273.29 293.597C270.932 293.597 269.05 294.124 267.645 295.177C266.24 296.18 265.538 297.584 265.538 299.389C265.538 300.342 265.739 301.17 266.14 301.872C266.592 302.524 267.169 303.125 267.871 303.677C268.624 304.178 269.477 304.655 270.43 305.106C271.384 305.507 272.362 305.909 273.366 306.31L280.065 309.093C281.52 309.695 282.85 310.397 284.054 311.199C285.258 312.001 286.287 312.929 287.14 313.982C288.043 315.035 288.746 316.264 289.247 317.668C289.749 319.022 290 320.602 290 322.407C290 324.413 289.599 326.294 288.796 328.049C287.993 329.804 286.814 331.358 285.258 332.712C283.753 334.016 281.896 335.069 279.688 335.872C277.531 336.624 275.072 337 272.312 337Z" fill="url(#paint4_linear_1_10)"/>
<path d="M75 270.628V250.372H87.8052V253.407H78.7605V259.137H86.476V262.173H78.7605V270.628H75Z" fill="white"/>
<path d="M91.5257 270.628V250.372H95.2862V270.628H91.5257Z" fill="white"/>
<path d="M104.468 270.628L97.8546 250.372H101.842L104.824 260.562C105.17 261.718 105.473 262.813 105.732 263.845C106.013 264.878 106.337 265.982 106.705 267.159H106.834C107.202 265.982 107.515 264.878 107.775 263.845C108.056 262.813 108.358 261.718 108.682 260.562L111.632 250.372H115.49L108.909 270.628H104.468Z" fill="white"/>
<path d="M118.055 270.628V250.372H130.828V253.407H121.816V258.58H129.434V261.615H121.816V267.593H131.152V270.628H118.055Z" fill="white"/>
<path d="M141.989 270.628V250.372H154.794V253.407H145.75V259.137H153.465V262.173H145.75V270.628H141.989Z" fill="white"/>
<path d="M166.432 271C165.049 271 163.785 270.763 162.64 270.288C161.494 269.792 160.511 269.09 159.689 268.181C158.868 267.252 158.231 266.137 157.777 264.836C157.323 263.535 157.096 262.059 157.096 260.407C157.096 258.776 157.323 257.32 157.777 256.04C158.231 254.739 158.868 253.645 159.689 252.757C160.511 251.869 161.494 251.187 162.64 250.712C163.785 250.237 165.049 250 166.432 250C167.816 250 169.08 250.237 170.225 250.712C171.371 251.187 172.354 251.869 173.175 252.757C174.018 253.645 174.667 254.739 175.121 256.04C175.574 257.32 175.801 258.776 175.801 260.407C175.801 262.059 175.574 263.535 175.121 264.836C174.667 266.137 174.018 267.252 173.175 268.181C172.354 269.09 171.371 269.792 170.225 270.288C169.08 270.763 167.816 271 166.432 271ZM166.432 267.872C167.275 267.872 168.032 267.696 168.702 267.345C169.372 266.994 169.944 266.499 170.42 265.858C170.895 265.198 171.263 264.413 171.522 263.504C171.781 262.575 171.911 261.543 171.911 260.407C171.911 258.136 171.414 256.36 170.42 255.08C169.447 253.779 168.118 253.128 166.432 253.128C164.747 253.128 163.407 253.779 162.413 255.08C161.44 256.36 160.954 258.136 160.954 260.407C160.954 261.543 161.083 262.575 161.343 263.504C161.602 264.413 161.97 265.198 162.445 265.858C162.921 266.499 163.493 266.994 164.163 267.345C164.833 267.696 165.59 267.872 166.432 267.872Z" fill="white"/>
<path d="M188.277 271C186.894 271 185.629 270.763 184.484 270.288C183.338 269.792 182.355 269.09 181.534 268.181C180.713 267.252 180.075 266.137 179.621 264.836C179.167 263.535 178.94 262.059 178.94 260.407C178.94 258.776 179.167 257.32 179.621 256.04C180.075 254.739 180.713 253.645 181.534 252.757C182.355 251.869 183.338 251.187 184.484 250.712C185.629 250.237 186.894 250 188.277 250C189.66 250 190.924 250.237 192.07 250.712C193.215 251.187 194.199 251.869 195.02 252.757C195.863 253.645 196.511 254.739 196.965 256.04C197.419 257.32 197.646 258.776 197.646 260.407C197.646 262.059 197.419 263.535 196.965 264.836C196.511 266.137 195.863 267.252 195.02 268.181C194.199 269.09 193.215 269.792 192.07 270.288C190.924 270.763 189.66 271 188.277 271ZM188.277 267.872C189.12 267.872 189.876 267.696 190.546 267.345C191.216 266.994 191.789 266.499 192.264 265.858C192.74 265.198 193.107 264.413 193.366 263.504C193.626 262.575 193.755 261.543 193.755 260.407C193.755 258.136 193.258 256.36 192.264 255.08C191.292 253.779 189.963 253.128 188.277 253.128C186.591 253.128 185.251 253.779 184.257 255.08C183.284 256.36 182.798 258.136 182.798 260.407C182.798 261.543 182.928 262.575 183.187 263.504C183.446 264.413 183.814 265.198 184.289 265.858C184.765 266.499 185.338 266.994 186.008 267.345C186.677 267.696 187.434 267.872 188.277 267.872Z" fill="white"/>
<path d="M205.311 270.628V253.407H199.184V250.372H215.199V253.407H209.072V270.628H205.311Z" fill="white"/>
<path d="M218.729 270.628V250.372H225.505C226.607 250.372 227.612 250.465 228.519 250.65C229.449 250.816 230.248 251.094 230.918 251.487C231.61 251.858 232.139 252.364 232.507 253.004C232.896 253.645 233.09 254.429 233.09 255.358C233.09 256.329 232.831 257.227 232.312 258.053C231.794 258.879 231.07 259.447 230.14 259.757V259.881C231.307 260.128 232.269 260.655 233.026 261.46C233.804 262.245 234.193 263.319 234.193 264.681C234.193 265.693 233.987 266.571 233.577 267.314C233.166 268.058 232.593 268.677 231.858 269.173C231.145 269.668 230.292 270.04 229.297 270.288C228.303 270.515 227.223 270.628 226.056 270.628H218.729ZM222.49 258.735H225.18C226.672 258.735 227.741 258.476 228.39 257.96C229.06 257.444 229.395 256.752 229.395 255.885C229.395 254.894 229.049 254.192 228.357 253.779C227.666 253.366 226.628 253.159 225.245 253.159H222.49V258.735ZM222.49 267.841H225.667C227.223 267.841 228.422 267.572 229.265 267.035C230.108 266.478 230.529 265.631 230.529 264.496C230.529 263.422 230.119 262.647 229.297 262.173C228.476 261.677 227.266 261.429 225.667 261.429H222.49V267.841Z" fill="white"/>
<path d="M242.416 259.85L241.671 262.327H247.085L246.339 259.85C245.993 258.776 245.658 257.671 245.334 256.535C245.031 255.4 244.729 254.274 244.426 253.159H244.297C243.994 254.295 243.692 255.431 243.389 256.566C243.086 257.681 242.762 258.776 242.416 259.85ZM235.317 270.628L242.222 250.372H246.631L253.536 270.628H249.581L247.928 265.146H240.796L239.142 270.628H235.317Z" fill="white"/>
<path d="M256.149 270.628V250.372H259.91V267.593H268.728V270.628H256.149Z" fill="white"/>
<path d="M272.422 270.628V250.372H276.182V267.593H285V270.628H272.422Z" fill="white"/>
<rect x="75" y="358" width="213" height="4" fill="#3A7E60"/>
<rect x="75" y="228" width="213" height="4" fill="white"/>
<rect y="0.588989" width="360" height="20.0251" fill="#3A7E60"/>
<rect y="620.564" width="360" height="20.0251" fill="#3A7E60"/>
</g>
<defs>
<linearGradient id="paint0_linear_1_10" x1="180" y1="286" x2="180" y2="337" gradientUnits="userSpaceOnUse">
<stop stop-color="#3A7E60"/>
<stop offset="1" stop-color="#388664"/>
</linearGradient>
<linearGradient id="paint1_linear_1_10" x1="180" y1="286" x2="180" y2="337" gradientUnits="userSpaceOnUse">
<stop stop-color="#3A7E60"/>
<stop offset="1" stop-color="#388664"/>
</linearGradient>
<linearGradient id="paint2_linear_1_10" x1="180" y1="286" x2="180" y2="337" gradientUnits="userSpaceOnUse">
<stop stop-color="#3A7E60"/>
<stop offset="1" stop-color="#388664"/>
</linearGradient>
<linearGradient id="paint3_linear_1_10" x1="180" y1="286" x2="180" y2="337" gradientUnits="userSpaceOnUse">
<stop stop-color="#3A7E60"/>
<stop offset="1" stop-color="#388664"/>
</linearGradient>
<linearGradient id="paint4_linear_1_10" x1="180" y1="286" x2="180" y2="337" gradientUnits="userSpaceOnUse">
<stop stop-color="#3A7E60"/>
<stop offset="1" stop-color="#388664"/>
</linearGradient>
<clipPath id="clip0_1_10">
<rect width="360" height="640" fill="white" transform="translate(0 0.588989)"/>
</clipPath>
</defs>
</svg>
